<svg width="24" height="24" viewBox="0 0 24 24" fill="none" xmlns="http://www.w3.org/2000/svg">
<g clip-path="url(#clip0_113_6759)">
<g filter="url(#filter0_d_113_6759)">
<path d="M21 16L15.997 21H3.998C3.73402 21.0005 3.48062 20.8962 3.29349 20.71C3.10636 20.5239 3.00079 20.271 3 20.007V3.993C3 3.445 3.445 3 3.993 3H20.007C20.555 3 21 3.447 21 3.999V16Z" fill="rgb(20, 21, 26)"/>
<path d="M21.5 16.2072L21.3534 16.3537L16.3504 21.3537L16.204 21.5H15.997L3.99901 21.5L3.998 21.5M21.5 16.2072L3 20.007C3.00079 20.271 3.10636 20.5239 3.29349 20.71C3.48062 20.8962 3.73402 21.0005 3.998 21V21.5M21.5 16.2072V16V3.999C21.5 3.17348 20.8338 2.5 20.007 2.5H3.993C3.16886 2.5 2.5 3.16886 2.5 3.993L2.5 20.007L2.5 20.0085C2.5012 20.405 2.65975 20.7848 2.94082 21.0645C3.22166 21.3439 3.60186 21.5005 3.998 21.5M21.5 16.2072L3.998 21.5" stroke="white"/>
</g>
</g>
<defs>
<filter id="filter0_d_113_6759" x="0" y="1" width="24" height="24" filterUnits="userSpaceOnUse" color-interpolation-filters="sRGB">
<feFlood flood-opacity="0" result="BackgroundImageFix"/>
<feColorMatrix in="SourceAlpha" type="matrix" values="0 0 0 0 0 0 0 0 0 0 0 0 0 0 0 0 0 0 127 0" result="hardAlpha"/>
<feOffset dy="1"/>
<feGaussianBlur stdDeviation="1"/>
<feComposite in2="hardAlpha" operator="out"/>
<feColorMatrix type="matrix" values="0 0 0 0 0.0784314 0 0 0 0 0.0823529 0 0 0 0 0.101961 0 0 0 0.05 0"/>
<feBlend mode="normal" in2="BackgroundImageFix" result="effect1_dropShadow_113_6759"/>
<feBlend mode="normal" in="SourceGraphic" in2="effect1_dropShadow_113_6759" result="shape"/>
</filter>
<clipPath id="clip0_113_6759">
<rect width="24" height="24" fill="white"/>
</clipPath>
</defs>
</svg>
