<svg width="0" height="0" class="hidden">
  <symbol fill="none" xmlns="http://www.w3.org/2000/svg" viewBox="0 0 24 24" id="Dots">
    <path d="M12.6717 11.9454C12.6415 11.6028 12.3539 11.3342 12.0034 11.3342C11.6329 11.3342 11.3326 11.6345 11.3326 12.005C11.3326 12.3755 11.6329 12.6759 12.0034 12.6759C12.3539 12.6759 12.6415 12.4072 12.6717 12.0646M5.67225 11.9454C5.64206 11.6025 5.35415 11.3336 5.00345 11.3336C4.63263 11.3336 4.33203 11.6342 4.33203 12.005C4.33203 12.3758 4.63263 12.6764 5.00345 12.6764C5.35415 12.6764 5.64206 12.4076 5.67225 12.0647M19.6697 11.9455C19.6397 11.6039 19.3528 11.3361 19.0034 11.3361C18.634 11.3361 18.3345 11.6355 18.3345 12.005C18.3345 12.3744 18.634 12.6739 19.0034 12.6739C19.3528 12.6739 19.6397 12.406 19.6697 12.0644" stroke="currentColor"  stroke-width="1.6" stroke-linecap="round" stroke-linejoin="round"></path>
  </symbol>
  <symbol viewBox="0 0 18 18" fill="none" xmlns="http://www.w3.org/2000/svg" id="TextAlignRight">
    <path d="M1 1H17M5 6H17M1 12H17M9 17H17" stroke="currentColor"  stroke-width="1.5" stroke-linecap="round" stroke-linejoin="round"/>
  </symbol>
  <symbol viewBox="0 0 18 18" fill="none" xmlns="http://www.w3.org/2000/svg" id="TextAlignCenter">
    <path d="M1 1H17M4 6H14M1 12H17M4 17H14" stroke="currentColor"  stroke-width="1.6" stroke-linecap="round" stroke-linejoin="round"/>
  </symbol>
  <symbol viewBox="0 0 18 18" fill="none" xmlns="http://www.w3.org/2000/svg" id="TextAlignLeft">
    <path d="M1 1H17M1 6H13M1 12H17M1 17H9" stroke="currentColor"  stroke-width="1.6" stroke-linecap="round" stroke-linejoin="round"/>
  </symbol>
  <symbol fill="none" xmlns="http://www.w3.org/2000/svg" viewBox="0 0 32 32" id="TextUnderline">
    <path d="M9 24H23M22 8V15C22 18.3137 19.3137 21 16 21C12.6863 21 10 18.3137 10 15V8" stroke="currentColor"  stroke-width="1.5" stroke-linecap="round" stroke-linejoin="round"></path>
  </symbol>
  <symbol fill="none" xmlns="http://www.w3.org/2000/svg" viewBox="0 0 24 24" id="TextStrike">
    <path d="M16.5 5.5C15.8334 4.83333 13.8835 3.5 11.5 3.5C9.11654 3.5 6.49998 5 6.5 7.5C6.5 8.06078 6.68209 8.54512 7 8.96165M6 17.5C7 18.5 9.03013 19.5 11.5 19.5C14 19.5 16.9588 18.0002 17 15.5C17.0267 13.8816 16.0922 12.7501 14.6791 12M20.5 12H14.6791M3.5 12H14.6791" stroke="currentColor"  stroke-width="1.5" stroke-linecap="round"></path>
  </symbol>
  <symbol fill="none" xmlns="http://www.w3.org/2000/svg" viewBox="0 0 24 24" id="TextItalic">
    <path d="M14.2465 20H5.51953H9.49953L14.5195 4H18.4995H9.77249" stroke="currentColor"  stroke-width="1.6" stroke-linecap="round" stroke-linejoin="round"></path>
  </symbol>
  <symbol fill="none" xmlns="http://www.w3.org/2000/svg" viewBox="0 0 24 24" id="TextFormat">
    <path d="M7 9H13C14.6569 9 16 7.65685 16 6C16 4.34315 14.6569 3 13 3H8L7 9ZM7 9H14.5C16.433 9 18 10.567 18 12.5C18 14.433 16.433 16 14.5 16H6L7 9Z" stroke="currentColor"  stroke-width="1.5" stroke-linecap="round" stroke-linejoin="round"></path>
    <path d="M5 21L18 21" stroke="currentColor"  stroke-width="1.6" stroke-linecap="round" stroke-linejoin="round"></path>
  </symbol>
  <symbol viewBox="0 0 24 24" fill="none" xmlns="http://www.w3.org/2000/svg" id="TextBold">
    <path d="M6 12H13C15.2091 12 17 10.2091 17 8C17 5.79086 15.2091 4 13 4H6V12ZM6 12H14.5C16.7091 12 18.5 13.7909 18.5 16C18.5 18.2091 16.7091 20 14.5 20H6V12Z" stroke="currentColor"  stroke-width="1.6" stroke-linecap="round" stroke-linejoin="round"/>
  </symbol>
  <symbol viewBox="0 0 10 16" fill="none" xmlns="http://www.w3.org/2000/svg" id="UpDownArrow">
    <path d="M0.833984 10.5L5.00065 14.6667L9.16732 10.5M0.833984 5.49999L5.00065 1.33333L9.16732 5.49999" stroke="currentColor"  stroke-width="1.5" stroke-linecap="round" stroke-linejoin="round"/>
  </symbol>

  <symbol fill="none" xmlns="http://www.w3.org/2000/svg" viewBox="0 0 17 17" id="Redo">
    <path d="M13.0007 1L16.0007 4M16.0007 4L13.0007 7M16.0007 4H7.00069C3.68669 4 0.974609 6.96486 0.974609 10.0029C0.974609 13.0409 3.68669 16 7.00069 16H15.0007" stroke="currentColor" stroke-width="1.6" stroke-linecap="round" stroke-linejoin="round"></path>
  </symbol>
  <symbol fill="none" xmlns="http://www.w3.org/2000/svg" viewBox="0 0 22 20" id="Image">
    <path d="M21 14L18.0486 11.0486C17.217 10.217 15.8509 10.279 15.098 11.1825L12.1402 14.7318C11.7866 15.1561 11.1561 15.2134 10.7318 14.8598L9.9031 14.1693C9.10845 13.507 7.93996 13.56 7.20852 14.2915L3 18.5M4 19H18C19.6569 19 21 17.6569 21 16V4C21 2.34315 19.6569 1 18 1H4C2.34315 1 1 2.34315 1 4V16C1 17.6569 2.34315 19 4 19ZM7 9C5.89543 9 5 8.10457 5 7C5 5.89543 5.89543 5 7 5C8.10457 5 9 5.89543 9 7C9 8.10457 8.10457 9 7 9Z" stroke="currentColor"  stroke-width="1.6" stroke-linecap="round"></path>
  </symbol>
  <symbol fill="none" xmlns="http://www.w3.org/2000/svg" viewBox="0 0 20 20" id="Pen">
    <path d="M3.84712 12.1899C6 12.1899 7.78585 14 7.78585 16.0462M8.05976 15.8168L18.3398 5.53675C19.1208 4.75575 19.1208 3.48975 18.3398 2.70875L17.2178 1.58575C16.4368 0.80475 15.1708 0.80475 14.3898 1.58575L4.10876 11.8667C3.96276 12.0127 3.84076 12.1808 3.74576 12.3638L1.11576 17.4597C0.669755 18.3247 1.59676 19.2528 2.46176 18.8078L7.56076 16.1818C7.74576 16.0858 7.91376 15.9638 8.05976 15.8168Z" stroke="currentColor"  stroke-width="1.6" stroke-linecap="round" stroke-linejoin="round"></path>
  </symbol>
  <symbol fill="none" xmlns="http://www.w3.org/2000/svg" viewBox="0 0 18 18" id="Arrow">
    <path d="M1 17L17 1M17 1L9 4M17 1L14 9" stroke="currentColor"  stroke-width="1.6" stroke-linecap="round" stroke-linejoin="round"></path>
  </symbol>
  <symbol fill="none" xmlns="http://www.w3.org/2000/svg" viewBox="0 0 20 20" id="AddShape">
    <path d="M3.73923 12.8022C2.08152 11.6243 1 9.68844 1 7.5C1 3.91015 3.91015 1 7.5 1C9.63768 1 11.5343 2.03192 12.719 3.6248M13.2678 10.5C12.6515 11.6824 11.6824 12.6515 10.5 13.2678M9 7H17C18.1046 7 19 7.89543 19 9V17C19 18.1046 18.1046 19 17 19H9C7.89543 19 7 18.1046 7 17V9C7 7.89543 7.89543 7 9 7Z" stroke="currentColor"  stroke-width="1.6" stroke-linecap="round"></path>
  </symbol>
  <symbol fill="none" xmlns="http://www.w3.org/2000/svg" viewBox="0 0 16 18" id="AddText">
    <path d="M8 17V1M8 17H5.5M8 17H10.5M8 1H1V3.83426M8 1H15V3.83426" stroke="currentColor"  stroke-width="1.6" stroke-linecap="round" stroke-linejoin="round"></path>
  </symbol>
  <symbol fill="none" xmlns="http://www.w3.org/2000/svg" viewBox="0 0 18 18" id="Sticker">
    <path d="M17 11H11.5C10.6716 11 10 11.6716 10 12.5L10 17M17 11L17 3C17 2.01778 16.2629 1 15 1H3C1.73714 1 1 2.01778 1 3V15C1 15.9822 1.73714 17 3 17H10M17 11L17 12.7084C17 13.1796 16.7589 13.632 16.3303 13.9653L13.0983 16.4791C12.6697 16.8124 12.088 17 11.4823 17H10" stroke="currentColor"  stroke-width="1.6" stroke-linecap="round" stroke-linejoin="round"></path>
  </symbol>
  <symbol fill="none" xmlns="http://www.w3.org/2000/svg" viewBox="0 0 20 20" id="Pointer">
    <path d="M7.0971 17.9825L1.7171 2.99533C1.4315 2.19975 2.20057 1.43068 2.99616 1.71627L17.9833 7.09627C18.8539 7.4088 18.87 8.63421 18.0079 8.96947L12.321 11.181C11.7984 11.3843 11.3851 11.7976 11.1819 12.3202L8.9703 18.0071C8.63504 18.8692 7.40962 18.8531 7.0971 17.9825Z" stroke="currentColor"  stroke-width="1.6" stroke-linecap="round" stroke-linejoin="round"></path>
  </symbol>
  <symbol  viewBox="0 0 20 20" fill="none" xmlns="http://www.w3.org/2000/svg" id="Rectangle">
    <path d="M1 2C1 1.44772 1.44772 1 2 1H18C18.5523 1 19 1.44772 19 2V18C19 18.5523 18.5523 19 18 19H2C1.44772 19 1 18.5523 1 18V2Z" stroke="currentColor"  stroke-width="1.6" stroke-linecap="round" stroke-linejoin="round"/>
  </symbol>
  <symbol viewBox="0 0 20 20" fill="none" xmlns="http://www.w3.org/2000/svg" id="RoundedRectangle">
    <path d="M1 6C1 3.23858 3.23858 1 6 1H14C16.7614 1 19 3.23858 19 6V14C19 16.7614 16.7614 19 14 19H6C3.23858 19 1 16.7614 1 14V6Z" stroke="currentColor"  stroke-width="1.6" stroke-linecap="round" stroke-linejoin="round"/>
  </symbol>
  <symbol viewBox="0 0 20 20" fill="none" xmlns="http://www.w3.org/2000/svg" id="Circle">
    <path d="M19 10C19 14.9706 14.9706 19 10 19C5.02944 19 1 14.9706 1 10C1 5.02944 5.02944 1 10 1C14.9706 1 19 5.02944 19 10Z" stroke="currentColor"  stroke-width="1.6" stroke-linecap="round"/>
  </symbol>
  <symbol viewBox="0 0 22 20" fill="none" xmlns="http://www.w3.org/2000/svg" id="Hexagon">
    <path d="M5.74282 1.46292L1.24282 9.56292C1.09181 9.83474 1.09181 10.1653 1.24282 10.4371L5.74282 18.5371C5.90155 18.8228 6.20271 19 6.52956 19H15.4704C15.7973 19 16.0984 18.8228 16.2572 18.5371L20.7572 10.4371C20.9082 10.1653 20.9082 9.83474 20.7572 9.56292L16.2572 1.46292C16.0984 1.1772 15.7973 1 15.4704 1H6.52956C6.20271 1 5.90155 1.1772 5.74282 1.46292Z" stroke="currentColor"  stroke-width="1.6" stroke-linejoin="round"/>
  </symbol>
  <symbol viewBox="0 0 22 21" fill="none" xmlns="http://www.w3.org/2000/svg" id="Rhombus">
    <path d="M10.2929 1.20711L1.70711 9.79289C1.31658 10.1834 1.31658 10.8166 1.70711 11.2071L10.2929 19.7929C10.6834 20.1834 11.3166 20.1834 11.7071 19.7929L20.2929 11.2071C20.6834 10.8166 20.6834 10.1834 20.2929 9.79289L11.7071 1.20711C11.3166 0.816583 10.6834 0.816582 10.2929 1.20711Z" stroke="currentColor"  stroke-width="1.6" stroke-linejoin="round"/>
  </symbol>
  <symbol viewBox="0 0 22 20" fill="none" xmlns="http://www.w3.org/2000/svg" id="Triangle">
    <path d="M2.49073 19H19.5093C20.1865 19 20.6211 18.2801 20.3057 17.6808L11.7964 1.51321C11.459 0.872106 10.541 0.872107 10.2036 1.51321L1.6943 17.6808C1.37887 18.2801 1.81347 19 2.49073 19Z" stroke="currentColor"  stroke-width="1.6" stroke-linejoin="round"/>
  </symbol>
  <symbol fill="none" xmlns="http://www.w3.org/2000/svg" viewBox="0 0 20 19" id="Star">
    <path fill-rule="evenodd" clip-rule="evenodd" d="M10 15.235L4.179 18L5.388 11.88L1 7.392L7.179 6.621L10 1L12.821 6.621L19 7.392L14.612 11.88L15.821 18L10 15.235Z" stroke="currentColor"  stroke-width="1.6" stroke-linecap="round" stroke-linejoin="round"></path>
  </symbol>
  <symbol fill="none" xmlns="http://www.w3.org/2000/svg" viewBox="0 0 21 18" id="ArrowRight">
    <path d="M20 9L12 1V5H1.8C1.51997 5 1.37996 5 1.273 5.0545C1.17892 5.10243 1.10243 5.17892 1.0545 5.273C1 5.37996 1 5.51997 1 5.8V12.2C1 12.48 1 12.62 1.0545 12.727C1.10243 12.8211 1.17892 12.8976 1.273 12.9455C1.37996 13 1.51997 13 1.8 13H12V17L20 9Z" stroke="currentColor"  stroke-width="1.6" stroke-linecap="round" stroke-linejoin="round"></path>
  </symbol>
  <symbol fill="none" xmlns="http://www.w3.org/2000/svg" viewBox="0 0 21 18" id="ArrowLeft">
    <path d="M1.5 9L9 1V5H19.2C19.48 5 19.62 5 19.727 5.0545C19.8211 5.10243 19.8976 5.17892 19.9455 5.273C20 5.37996 20 5.51997 20 5.8V12.2C20 12.48 20 12.62 19.9455 12.727C19.8976 12.8211 19.8211 12.8976 19.727 12.9455C19.62 13 19.48 13 19.2 13H9V17L1.5 9Z" stroke="currentColor"  stroke-width="1.6" stroke-linecap="round" stroke-linejoin="round"></path>
  </symbol>
  <symbol fill="none" xmlns="http://www.w3.org/2000/svg" viewBox="0 0 20 16" id="ArrowBlockRight">
    <path d="M1.74859 2.33915C1.41324 1.73923 1.8469 1 2.53418 1H14.559C14.885 1 15.1855 1.17629 15.3446 1.46085L18.7545 7.56085C18.9071 7.83375 18.9071 8.16625 18.7545 8.43915L15.3446 14.5391C15.1856 14.8237 14.885 15 14.559 15H2.53423C1.84695 15 1.41329 14.2608 1.74864 13.6609L4.66756 8.43915C4.82011 8.16625 4.82011 7.83375 4.66756 7.56085L1.74859 2.33915Z" stroke="currentColor"  stroke-width="1.6" stroke-linecap="round" stroke-linejoin="round"></path>
  </symbol>
  <symbol fill="none" xmlns="http://www.w3.org/2000/svg" viewBox="0 0 20 16" id="ArrowBlockLeft">
    <path d="M4.72193 1.4551C4.88192 1.17377 5.18064 1 5.50428 1H17.4528C18.143 1 18.5763 1.74492 18.2351 2.3449L15.2722 7.5551C15.1153 7.83095 15.1153 8.16904 15.2722 8.4449L18.2352 13.6551C18.5764 14.2551 18.143 15 17.4528 15H5.50434C5.1807 15 4.88198 14.8262 4.72199 14.5449L1.25301 8.4449C1.09613 8.16904 1.09613 7.83096 1.25301 7.5551L4.72193 1.4551Z" stroke="currentColor"  stroke-width="1.6" stroke-linecap="round" stroke-linejoin="round"></path>
  </symbol>
  <symbol fill="none" xmlns="http://www.w3.org/2000/svg" viewBox="0 0 20 19" id="SpeachBubble">
    <path fill-rule="evenodd" clip-rule="evenodd" d="M10 15H16C17.657 15 19 13.657 19 12V4C19 2.343 17.657 1 16 1H4C2.343 1 1 2.343 1 4V12C1 13.657 2.343 15 4 15H5.5V18L10 15Z" stroke="currentColor"  stroke-width="1.6" stroke-linecap="round" stroke-linejoin="round"></path>
  </symbol>
  <symbol fill="none" xmlns="http://www.w3.org/2000/svg" viewBox="0 0 20 18" id="ReversedParallelogram">
    <path d="M1.27957 2.11828C1.13756 1.55025 1.56718 1 2.1527 1H14.2973C14.7103 1 15.0703 1.28107 15.1704 1.68172L18.7204 15.8817C18.8624 16.4498 18.4328 17 17.8473 17H5.7027C5.28972 17 4.92973 16.7189 4.82957 16.3183L1.27957 2.11828Z" stroke="currentColor"  stroke-width="1.6" stroke-linecap="round" stroke-linejoin="round"></path>
  </symbol>
  <symbol fill="none" xmlns="http://www.w3.org/2000/svg" viewBox="0 0 20 18" id="Parallelogram">
    <path d="M4.82957 1.68172C4.92973 1.28107 5.28972 1 5.7027 1H17.8473C18.4328 1 18.8624 1.55025 18.7204 2.11828L15.1704 16.3183C15.0703 16.7189 14.7103 17 14.2973 17H2.1527C1.56718 17 1.13756 16.4498 1.27957 15.8817L4.82957 1.68172Z" stroke="currentColor"  stroke-width="1.6" stroke-linecap="round" stroke-linejoin="round"></path>
  </symbol>
  <symbol fill="none" xmlns="http://www.w3.org/2000/svg" viewBox="0 0 22 20" id="ReversedTriangle">
    <path d="M2.49073 1H19.5093C20.1865 1 20.6211 1.71985 20.3057 2.31917L11.7964 18.4868C11.459 19.1279 10.541 19.1279 10.2036 18.4868L1.6943 2.31917C1.37887 1.71985 1.81347 1 2.49073 1Z" stroke="currentColor"  stroke-width="1.6" stroke-linejoin="round"></path>
  </symbol>
  <symbol viewBox="0 0 18 18" fill="none" xmlns="http://www.w3.org/2000/svg" id="DiagonalLine">
    <path d="M1 17L17 1" stroke="currentColor" stroke-width="1.6" stroke-linecap="round" stroke-linejoin="round"/>
  </symbol>
  <symbol viewBox="0 0 18 18" fill="none" xmlns="http://www.w3.org/2000/svg" id="DiagonalDashedLine">
    <path d="M1 17L5 13M13 5L17 1M7 11L11 7" stroke="currentColor"  stroke-width="1.6" stroke-linecap="round" stroke-linejoin="round"/>
  </symbol>
  <symbol viewBox="0 0 18 18" fill="none" xmlns="http://www.w3.org/2000/svg" id="DiagonalDottedLine">
    <path d="M1 17L2 16M4 14L5 13M7 11L8 10M10 8L11 7M13 5L14 4M16 2L17 1" stroke="currentColor"  stroke-width="1.5" stroke-linecap="round" stroke-linejoin="round"/>
  </symbol>
  <symbol viewBox="0 0 18 18" fill="none" xmlns="http://www.w3.org/2000/svg" id="CurvedLine">
    <path d="M1 17C1 5 17 13 17 1" stroke="currentColor"  stroke-width="1.6" stroke-linecap="round" stroke-linejoin="round"/>
  </symbol>
  <symbol viewBox="0 0 18 2" fill="none" xmlns="http://www.w3.org/2000/svg" id="PointerStart">
    <path d="M17 1H1" stroke="currentColor"  stroke-width="1.6" stroke-linecap="round" stroke-linejoin="round"/>
  </symbol>
  <symbol viewBox="0 0 18 18" fill="none" xmlns="http://www.w3.org/2000/svg" id="PointerRoll">
    <path d="M4.5128 5.79482H1.30762V2.58963M2.01358 5.79482C3.22984 3.14861 5.89741 1.30756 9.00003 1.30756C12.9099 1.30756 16.138 4.22372 16.6281 7.99994M13.4873 12.2052H16.6925V15.4104M15.9865 12.2052C14.7702 14.8514 12.1027 16.6924 9.00006 16.6924C4.97315 16.6924 1.66949 13.5991 1.33542 9.65869" stroke="currentColor"  stroke-width="1.6" stroke-linecap="round" stroke-linejoin="round"/>
  </symbol>
  <symbol viewBox="0 0 18 10" fill="none" xmlns="http://www.w3.org/2000/svg" id="PointerEnd">
    <path d="M1 5H17M17 5L12 1M17 5L12 9" stroke="currentColor"  stroke-width="1.6" stroke-linecap="round" stroke-linejoin="round"/>
  </symbol>
  <symbol viewBox="0 0 18 6" fill="none" xmlns="http://www.w3.org/2000/svg" id="PointerEndCompact">
    <path d="M1 3H17M17 3L13 5V1L17 3Z" stroke="currentColor"  stroke-width="1.6" stroke-linecap="round" stroke-linejoin="round"/>
  </symbol>
  <symbol viewBox="0 0 18 20" fill="none" xmlns="http://www.w3.org/2000/svg" id="Trash">
    <path d="M2.9977 6.99872V17.0029C2.9977 18.1079 3.8935 19.0037 4.99853 19.0037H13.0019C14.1069 19.0037 15.0027 18.1079 15.0027 17.0029V6.99872M11.001 7.99914V15.0021M6.99936 7.99914V15.0021M1.49707 3.99747H16.5033M4.99853 3.99747L5.54276 2.36479C5.81501 1.54736 6.57997 0.996011 7.44155 0.996217H10.5588C11.4212 0.995149 12.1871 1.54666 12.4596 2.36479L13.0019 3.99747" stroke="currentColor" stroke-width="1.6" stroke-linecap="round" stroke-linejoin="round"/>
  </symbol>
  <symbol viewBox="0 0 20 20" fill="none" xmlns="http://www.w3.org/2000/svg" id="Copy">
    <path d="M6.4 6.4V3.88C6.4 2.87191 6.4 2.36786 6.59619 1.98282C6.76876 1.64413 7.04413 1.36876 7.38282 1.19619C7.76786 1 8.27191 1 9.28 1H16.12C17.1281 1 17.6321 1 18.0172 1.19619C18.3559 1.36876 18.6312 1.64413 18.8038 1.98282C19 2.36786 19 2.87191 19 3.88V10.72C19 11.7281 19 12.2321 18.8038 12.6172C18.6312 12.9559 18.3559 13.2312 18.0172 13.4038C17.6321 13.6 17.1281 13.6 16.12 13.6H13.6M3.88 19H10.72C11.7281 19 12.2321 19 12.6172 18.8038C12.9559 18.6312 13.2312 18.3559 13.4038 18.0172C13.6 17.6321 13.6 17.1281 13.6 16.12V9.28C13.6 8.27191 13.6 7.76786 13.4038 7.38282C13.2312 7.04413 12.9559 6.76876 12.6172 6.59619C12.2321 6.4 11.7281 6.4 10.72 6.4H3.88C2.87191 6.4 2.36786 6.4 1.98282 6.59619C1.64413 6.76876 1.36876 7.04413 1.19619 7.38282C1 7.76786 1 8.27191 1 9.28V16.12C1 17.1281 1 17.6321 1.19619 18.0172C1.36876 18.3559 1.64413 18.6312 1.98282 18.8038C2.36786 19 2.87191 19 3.88 19Z" stroke="currentColor"  stroke-width="1.6" stroke-linecap="round" stroke-linejoin="round"/>
  </symbol>
  <symbol viewBox="0 0 18 18" fill="none" xmlns="http://www.w3.org/2000/svg" id="VerticalAlignTop">
    <path d="M9.00034 4.99999V17.0046M9.00034 4.99999L6.00001 8.00128M9.00034 4.99999L12.0015 8.00128M1 1H17" stroke="currentColor"  stroke-width="1.5" stroke-linecap="round" stroke-linejoin="round"/>
  </symbol>
  <symbol viewBox="0 0 18 20" fill="none" xmlns="http://www.w3.org/2000/svg" id="VerticalAlignCenter">
    <path d="M8.99995 7V1M8.99995 7L12 4.5M8.99995 7L5.99995 4.5M9 13V19M9 13L6 15.5M9 13L12 15.5M1 10H17" stroke="currentColor" stroke-width="1.6" stroke-linecap="round" stroke-linejoin="round"/>
  </symbol>
  <symbol viewBox="0 0 18 18" fill="none" xmlns="http://www.w3.org/2000/svg" id="VerticalAlignBottom">
    <path d="M9.00116 13.0046V1M9.00116 13.0046L12.0015 10.0033M9.00116 13.0046L5.99999 10.0033M1 17.0046H17" stroke="currentColor"  stroke-width="1.5" stroke-linecap="round" stroke-linejoin="round"/>
  </symbol>
  <symbol viewBox="0 0 20 2" fill="none" xmlns="http://www.w3.org/2000/svg" id="Minus">
    <path d="M1.51477 1H18.4853" stroke="currentColor"  stroke-width="1.6" stroke-linecap="round" stroke-linejoin="round" />
  </symbol>
  <symbol viewBox="0 0 20 20" fill="none" xmlns="http://www.w3.org/2000/svg" id="Plus">
    <path d="M10.0001 1.51465V18.4852M1.51477 9.99993H18.4853" stroke="currentColor"  stroke-width="1.6" stroke-linecap="round" stroke-linejoin="round" />
  </symbol>
  <symbol viewBox="0 0 18 20" fill="none" xmlns="http://www.w3.org/2000/svg" id="Export">
    <path d="M5 8H3C1.895 8 1 8.895 1 10V17C1 18.105 1.895 19 3 19H15C16.105 19 17 18.105 17 17V10C17 8.895 16.105 8 15 8H13M9 1V12M9 1L6.001 4M9 1L12 4" stroke="currentColor"  stroke-width="1.6" stroke-linecap="round" stroke-linejoin="round"/>
  </symbol>
  <symbol id="ErrorIcon" viewBox="0 0 20 20" fill="none" xmlns="http://www.w3.org/2000/svg">
    <path d="M10.0003 10.8304V6.25M10.1938 13.3104C10.1823 13.2138 10.0998 13.1385 9.99915 13.1385C9.89184 13.1385 9.80552 13.226 9.80552 13.3333C9.80552 13.4406 9.893 13.5281 10.0003 13.5281C10.0999 13.5281 10.1823 13.4528 10.1938 13.3563M7.38339 2.5H12.6693C13.1114 2.5 13.5353 2.67559 13.8479 2.98816L17.0382 6.17851C17.3508 6.49107 17.5264 6.915 17.5264 7.35702V12.643C17.5264 13.085 17.3508 13.5089 17.0382 13.8215L13.8479 17.0118C13.5353 17.3244 13.1114 17.5 12.6693 17.5H7.38339C6.94136 17.5 6.51744 17.3244 6.20488 17.0118L3.01452 13.8215C2.70196 13.5089 2.52637 13.085 2.52637 12.643V7.35702C2.52637 6.915 2.70196 6.49107 3.01452 6.17851L6.20488 2.98815C6.51744 2.67559 6.94136 2.5 7.38339 2.5Z" stroke="#F6F6F6" stroke-width="1.4" stroke-linecap="round" stroke-linejoin="round"/>
  </symbol>

</svg>