<svg width="32" height="32" fill="none" xmlns="http://www.w3.org/2000/svg"><g filter="url(#a)" fill-rule="evenodd" clip-rule="evenodd"><path d="M17.534 5.746c0-.736.597-1.333 1.334-1.333h7.466c.737 0 1.334.597 1.334 1.333v7.467c0 .737-.597 1.333-1.334 1.333h-1.6a1.333 1.333 0 0 1-1.333-1.333V12.02a.133.133 0 0 0-.227-.095L11.885 22.973a.133.133 0 0 0 .095.227h1.194c.737 0 1.334.597 1.334 1.333v1.6c0 .737-.597 1.334-1.334 1.334H5.707a1.333 1.333 0 0 1-1.333-1.334v-7.466c0-.737.597-1.334 1.333-1.334h1.6c.737 0 1.334.597 1.334 1.334v1.194c0 .119.143.178.227.095L20.157 8.907a.133.133 0 0 0-.095-.227h-1.194a1.333 1.333 0 0 1-1.334-1.334v-1.6Z" fill="#fff"/><path d="M18.824 5.704h7.467v7.467h-1.6V8.435L8.438 24.533h4.736v1.6H5.707v-7.467h1.6V23.4L23.56 7.304h-4.736v-1.6Z" fill="#000"/></g><defs><filter id="a" x="-.5" y="-.5" width="33" height="33" filterUnits="userSpaceOnUse" color-interpolation-filters="sRGB"><feFlood flood-opacity="0" result="BackgroundImageFix"/><feColorMatrix in="SourceAlpha" values="0 0 0 0 0 0 0 0 0 0 0 0 0 0 0 0 0 0 127 0" result="hardAlpha"/><feOffset/><feGaussianBlur stdDeviation=".25"/><feColorMatrix values="0 0 0 0 0 0 0 0 0 0 0 0 0 0 0 0 0 0 0.3 0"/><feBlend in2="BackgroundImageFix" result="effect1_dropShadow_26446_231473"/><feBlend in="SourceGraphic" in2="effect1_dropShadow_26446_231473" result="shape"/></filter></defs></svg>